<svg width="246" height="36" viewBox="0 0 246 36" fill="none" xmlns="http://www.w3.org/2000/svg">
<path d="M27.995 1.43V26H22.01V11.265L16.515 26H11.685L6.155 11.23V26H0.17V1.43H7.24L14.135 18.44L20.96 1.43H27.995ZM41.1889 26.28C39.2756 26.28 37.5489 25.8717 36.0089 25.055C34.4922 24.2383 33.2906 23.0717 32.4039 21.555C31.5406 20.0383 31.1089 18.265 31.1089 16.235C31.1089 14.2283 31.5522 12.4667 32.4389 10.95C33.3256 9.41 34.5389 8.23167 36.0789 7.415C37.6189 6.59833 39.3456 6.19 41.2589 6.19C43.1722 6.19 44.8989 6.59833 46.4389 7.415C47.9789 8.23167 49.1922 9.41 50.0789 10.95C50.9656 12.4667 51.4089 14.2283 51.4089 16.235C51.4089 18.2417 50.9539 20.015 50.0439 21.555C49.1572 23.0717 47.9322 24.2383 46.3689 25.055C44.8289 25.8717 43.1022 26.28 41.1889 26.28ZM41.1889 21.1C42.3322 21.1 43.3006 20.68 44.0939 19.84C44.9106 19 45.3189 17.7983 45.3189 16.235C45.3189 14.6717 44.9222 13.47 44.1289 12.63C43.3589 11.79 42.4022 11.37 41.2589 11.37C40.0922 11.37 39.1239 11.79 38.3539 12.63C37.5839 13.4467 37.1989 14.6483 37.1989 16.235C37.1989 17.7983 37.5722 19 38.3189 19.84C39.0889 20.68 40.0456 21.1 41.1889 21.1ZM66.4841 6.26C68.7707 6.26 70.5907 7.00667 71.9441 8.5C73.3207 9.97 74.0091 12 74.0091 14.59V26H68.0591V15.395C68.0591 14.0883 67.7207 13.0733 67.0441 12.35C66.3674 11.6267 65.4574 11.265 64.3141 11.265C63.1707 11.265 62.2607 11.6267 61.5841 12.35C60.9074 13.0733 60.5691 14.0883 60.5691 15.395V26H54.5841V6.47H60.5691V9.06C61.1757 8.19667 61.9924 7.52 63.0191 7.03C64.0457 6.51667 65.2007 6.26 66.4841 6.26Z" fill="#5A4EE5"/>
<path d="M96.543 1.325V6.785H89.963V26H83.103V6.785H76.593V1.325H96.543ZM97.9611 16.165C97.9611 14.135 98.3228 12.3617 99.0461 10.845C99.7928 9.32833 100.796 8.16167 102.056 7.345C103.339 6.52833 104.763 6.12 106.326 6.12C107.679 6.12 108.846 6.38833 109.826 6.925C110.806 7.46167 111.564 8.185 112.101 9.095V6.365H118.961V26H112.101V23.27C111.564 24.18 110.794 24.9033 109.791 25.44C108.811 25.9767 107.656 26.245 106.326 26.245C104.763 26.245 103.339 25.8367 102.056 25.02C100.796 24.2033 99.7928 23.0367 99.0461 21.52C98.3228 19.98 97.9611 18.195 97.9611 16.165ZM112.101 16.165C112.101 14.905 111.751 13.9133 111.051 13.19C110.374 12.4667 109.534 12.105 108.531 12.105C107.504 12.105 106.653 12.4667 105.976 13.19C105.299 13.89 104.961 14.8817 104.961 16.165C104.961 17.425 105.299 18.4283 105.976 19.175C106.653 19.8983 107.504 20.26 108.531 20.26C109.534 20.26 110.374 19.8983 111.051 19.175C111.751 18.4517 112.101 17.4483 112.101 16.165ZM131.235 26.245C129.462 26.245 127.875 25.9533 126.475 25.37C125.098 24.7633 124.002 23.9467 123.185 22.92C122.392 21.87 121.948 20.6917 121.855 19.385H128.505C128.598 20.015 128.89 20.505 129.38 20.855C129.87 21.205 130.477 21.38 131.2 21.38C131.76 21.38 132.203 21.2633 132.53 21.03C132.857 20.7967 133.02 20.4933 133.02 20.12C133.02 19.63 132.752 19.2683 132.215 19.035C131.678 18.8017 130.792 18.545 129.555 18.265C128.155 17.985 126.988 17.67 126.055 17.32C125.122 16.97 124.305 16.3983 123.605 15.605C122.928 14.8117 122.59 13.7383 122.59 12.385C122.59 11.2183 122.905 10.1683 123.535 9.235C124.165 8.27833 125.087 7.52 126.3 6.96C127.537 6.4 129.018 6.12 130.745 6.12C133.312 6.12 135.33 6.75 136.8 8.01C138.27 9.27 139.122 10.9267 139.355 12.98H133.16C133.043 12.35 132.763 11.8717 132.32 11.545C131.9 11.195 131.328 11.02 130.605 11.02C130.045 11.02 129.613 11.125 129.31 11.335C129.03 11.545 128.89 11.8367 128.89 12.21C128.89 12.6767 129.158 13.0383 129.695 13.295C130.232 13.5283 131.095 13.7733 132.285 14.03C133.708 14.3333 134.887 14.6717 135.82 15.045C136.777 15.4183 137.605 16.025 138.305 16.865C139.028 17.6817 139.39 18.8017 139.39 20.225C139.39 21.3683 139.052 22.395 138.375 23.305C137.722 24.215 136.777 24.9383 135.54 25.475C134.327 25.9883 132.892 26.245 131.235 26.245ZM155.048 26L149.623 17.95V26H142.763V0.0999997H149.623V14.065L155.048 6.365H163.273L155.538 16.235L163.413 26H155.048ZM181.034 21.975H172.284L170.954 26H163.744L172.739 1.325H180.649L189.609 26H182.364L181.034 21.975ZM179.319 16.725L176.659 8.745L174.034 16.725H179.319ZM198.705 9.095C199.241 8.185 200 7.46167 200.98 6.925C201.96 6.38833 203.115 6.12 204.445 6.12C206.008 6.12 207.42 6.52833 208.68 7.345C209.963 8.16167 210.966 9.32833 211.69 10.845C212.436 12.3617 212.81 14.135 212.81 16.165C212.81 18.195 212.436 19.98 211.69 21.52C210.966 23.0367 209.963 24.2033 208.68 25.02C207.42 25.8367 206.008 26.245 204.445 26.245C203.115 26.245 201.96 25.9767 200.98 25.44C200.023 24.9033 199.265 24.18 198.705 23.27V35.38H191.845V6.365H198.705V9.095ZM205.845 16.165C205.845 14.8817 205.495 13.89 204.795 13.19C204.118 12.4667 203.278 12.105 202.275 12.105C201.271 12.105 200.42 12.4667 199.72 13.19C199.043 13.9133 198.705 14.905 198.705 16.165C198.705 17.4483 199.043 18.4517 199.72 19.175C200.42 19.8983 201.271 20.26 202.275 20.26C203.278 20.26 204.118 19.8983 204.795 19.175C205.495 18.4283 205.845 17.425 205.845 16.165ZM222.494 9.095C223.03 8.185 223.789 7.46167 224.769 6.925C225.749 6.38833 226.904 6.12 228.234 6.12C229.797 6.12 231.209 6.52833 232.469 7.345C233.752 8.16167 234.755 9.32833 235.479 10.845C236.225 12.3617 236.599 14.135 236.599 16.165C236.599 18.195 236.225 19.98 235.479 21.52C234.755 23.0367 233.752 24.2033 232.469 25.02C231.209 25.8367 229.797 26.245 228.234 26.245C226.904 26.245 225.749 25.9767 224.769 25.44C223.812 24.9033 223.054 24.18 222.494 23.27V35.38H215.634V6.365H222.494V9.095ZM229.634 16.165C229.634 14.8817 229.284 13.89 228.584 13.19C227.907 12.4667 227.067 12.105 226.064 12.105C225.06 12.105 224.209 12.4667 223.509 13.19C222.832 13.9133 222.494 14.905 222.494 16.165C222.494 17.4483 222.832 18.4517 223.509 19.175C224.209 19.8983 225.06 20.26 226.064 20.26C227.067 20.26 227.907 19.8983 228.584 19.175C229.284 18.4283 229.634 17.425 229.634 16.165ZM242.433 26.28C241.383 26.28 240.52 25.9767 239.843 25.37C239.19 24.74 238.863 23.97 238.863 23.06C238.863 22.1267 239.19 21.345 239.843 20.715C240.52 20.085 241.383 19.77 242.433 19.77C243.46 19.77 244.3 20.085 244.953 20.715C245.63 21.345 245.968 22.1267 245.968 23.06C245.968 23.97 245.63 24.74 244.953 25.37C244.3 25.9767 243.46 26.28 242.433 26.28Z" fill="#43BFF4"/>
</svg>
