<svg width="254" height="78" viewBox="0 0 254 78" fill="none" xmlns="http://www.w3.org/2000/svg">
<path d="M29.138 13.132V37H23.324V22.686L17.986 37H13.294L7.922 22.652V37H2.108V13.132H8.976L15.674 29.656L22.304 13.132H29.138ZM41.9549 37.272C40.0963 37.272 38.4189 36.8753 36.9229 36.082C35.4496 35.2887 34.2823 34.1553 33.4209 32.682C32.5823 31.2087 32.1629 29.486 32.1629 27.514C32.1629 25.5647 32.5936 23.8533 33.4549 22.38C34.3163 20.884 35.4949 19.7393 36.9909 18.946C38.4869 18.1527 40.1643 17.756 42.0229 17.756C43.8816 17.756 45.5589 18.1527 47.0549 18.946C48.5509 19.7393 49.7296 20.884 50.5909 22.38C51.4523 23.8533 51.8829 25.5647 51.8829 27.514C51.8829 29.4633 51.4409 31.186 50.5569 32.682C49.6956 34.1553 48.5056 35.2887 46.9869 36.082C45.4909 36.8753 43.8136 37.272 41.9549 37.272ZM41.9549 32.24C43.0656 32.24 44.0063 31.832 44.7769 31.016C45.5703 30.2 45.9669 29.0327 45.9669 27.514C45.9669 25.9953 45.5816 24.828 44.8109 24.012C44.0629 23.196 43.1336 22.788 42.0229 22.788C40.8896 22.788 39.9489 23.196 39.2009 24.012C38.4529 24.8053 38.0789 25.9727 38.0789 27.514C38.0789 29.0327 38.4416 30.2 39.1669 31.016C39.9149 31.832 40.8443 32.24 41.9549 32.24ZM66.5274 17.824C68.7487 17.824 70.5167 18.5493 71.8314 20C73.1687 21.428 73.8374 23.4 73.8374 25.916V37H68.0574V26.698C68.0574 25.4287 67.7287 24.4427 67.0714 23.74C66.414 23.0373 65.53 22.686 64.4194 22.686C63.3087 22.686 62.4247 23.0373 61.7674 23.74C61.11 24.4427 60.7814 25.4287 60.7814 26.698V37H54.9674V18.028H60.7814V20.544C61.3707 19.7053 62.164 19.048 63.1614 18.572C64.1587 18.0733 65.2807 17.824 66.5274 17.824Z" fill="white"/>
<path d="M95.7275 13.03V18.334H89.3355V37H82.6715V18.334H76.3475V13.03H95.7275ZM97.1051 27.446C97.1051 25.474 97.4564 23.7513 98.1591 22.278C98.8844 20.8047 99.8591 19.6713 101.083 18.878C102.33 18.0847 103.712 17.688 105.231 17.688C106.546 17.688 107.679 17.9487 108.631 18.47C109.583 18.9913 110.32 19.694 110.841 20.578V17.926H117.505V37H110.841V34.348C110.32 35.232 109.572 35.9347 108.597 36.456C107.645 36.9773 106.523 37.238 105.231 37.238C103.712 37.238 102.33 36.8413 101.083 36.048C99.8591 35.2547 98.8844 34.1213 98.1591 32.648C97.4564 31.152 97.1051 29.418 97.1051 27.446ZM110.841 27.446C110.841 26.222 110.501 25.2587 109.821 24.556C109.164 23.8533 108.348 23.502 107.373 23.502C106.376 23.502 105.548 23.8533 104.891 24.556C104.234 25.236 103.905 26.1993 103.905 27.446C103.905 28.67 104.234 29.6447 104.891 30.37C105.548 31.0727 106.376 31.424 107.373 31.424C108.348 31.424 109.164 31.0727 109.821 30.37C110.501 29.6673 110.841 28.6927 110.841 27.446ZM129.428 37.238C127.706 37.238 126.164 36.9547 124.804 36.388C123.467 35.7987 122.402 35.0053 121.608 34.008C120.838 32.988 120.407 31.8433 120.316 30.574H126.776C126.867 31.186 127.15 31.662 127.626 32.002C128.102 32.342 128.692 32.512 129.394 32.512C129.938 32.512 130.369 32.3987 130.686 32.172C131.004 31.9453 131.162 31.6507 131.162 31.288C131.162 30.812 130.902 30.4607 130.38 30.234C129.859 30.0073 128.998 29.758 127.796 29.486C126.436 29.214 125.303 28.908 124.396 28.568C123.49 28.228 122.696 27.6727 122.016 26.902C121.359 26.1313 121.03 25.0887 121.03 23.774C121.03 22.6407 121.336 21.6207 121.948 20.714C122.56 19.7847 123.456 19.048 124.634 18.504C125.836 17.96 127.275 17.688 128.952 17.688C131.446 17.688 133.406 18.3 134.834 19.524C136.262 20.748 137.09 22.3573 137.316 24.352H131.298C131.185 23.74 130.913 23.2753 130.482 22.958C130.074 22.618 129.519 22.448 128.816 22.448C128.272 22.448 127.853 22.55 127.558 22.754C127.286 22.958 127.15 23.2413 127.15 23.604C127.15 24.0573 127.411 24.4087 127.932 24.658C128.454 24.8847 129.292 25.1227 130.448 25.372C131.831 25.6667 132.976 25.9953 133.882 26.358C134.812 26.7207 135.616 27.31 136.296 28.126C136.999 28.9193 137.35 30.0073 137.35 31.39C137.35 32.5007 137.022 33.498 136.364 34.382C135.73 35.266 134.812 35.9687 133.61 36.49C132.432 36.9887 131.038 37.238 129.428 37.238ZM152.561 37L147.291 29.18V37H140.627V11.84H147.291V25.406L152.561 17.926H160.551L153.037 27.514L160.687 37H152.561ZM177.804 33.09H169.304L168.012 37H161.008L169.746 13.03H177.43L186.134 37H179.096L177.804 33.09ZM176.138 27.99L173.554 20.238L171.004 27.99H176.138ZM194.97 20.578C195.492 19.694 196.228 18.9913 197.18 18.47C198.132 17.9487 199.254 17.688 200.546 17.688C202.065 17.688 203.436 18.0847 204.66 18.878C205.907 19.6713 206.882 20.8047 207.584 22.278C208.31 23.7513 208.672 25.474 208.672 27.446C208.672 29.418 208.31 31.152 207.584 32.648C206.882 34.1213 205.907 35.2547 204.66 36.048C203.436 36.8413 202.065 37.238 200.546 37.238C199.254 37.238 198.132 36.9773 197.18 36.456C196.251 35.9347 195.514 35.232 194.97 34.348V46.112H188.306V17.926H194.97V20.578ZM201.906 27.446C201.906 26.1993 201.566 25.236 200.886 24.556C200.229 23.8533 199.413 23.502 198.438 23.502C197.464 23.502 196.636 23.8533 195.956 24.556C195.299 25.2587 194.97 26.222 194.97 27.446C194.97 28.6927 195.299 29.6673 195.956 30.37C196.636 31.0727 197.464 31.424 198.438 31.424C199.413 31.424 200.229 31.0727 200.886 30.37C201.566 29.6447 201.906 28.67 201.906 27.446ZM218.08 20.578C218.601 19.694 219.338 18.9913 220.29 18.47C221.242 17.9487 222.364 17.688 223.656 17.688C225.174 17.688 226.546 18.0847 227.77 18.878C229.016 19.6713 229.991 20.8047 230.694 22.278C231.419 23.7513 231.782 25.474 231.782 27.446C231.782 29.418 231.419 31.152 230.694 32.648C229.991 34.1213 229.016 35.2547 227.77 36.048C226.546 36.8413 225.174 37.238 223.656 37.238C222.364 37.238 221.242 36.9773 220.29 36.456C219.36 35.9347 218.624 35.232 218.08 34.348V46.112H211.416V17.926H218.08V20.578ZM225.016 27.446C225.016 26.1993 224.676 25.236 223.996 24.556C223.338 23.8533 222.522 23.502 221.548 23.502C220.573 23.502 219.746 23.8533 219.066 24.556C218.408 25.2587 218.08 26.222 218.08 27.446C218.08 28.6927 218.408 29.6673 219.066 30.37C219.746 31.0727 220.573 31.424 221.548 31.424C222.522 31.424 223.338 31.0727 223.996 30.37C224.676 29.6447 225.016 28.67 225.016 27.446ZM237.449 37.272C236.429 37.272 235.59 36.9773 234.933 36.388C234.298 35.776 233.981 35.028 233.981 34.144C233.981 33.2373 234.298 32.478 234.933 31.866C235.59 31.254 236.429 30.948 237.449 30.948C238.446 30.948 239.262 31.254 239.897 31.866C240.554 32.478 240.883 33.2373 240.883 34.144C240.883 35.028 240.554 35.776 239.897 36.388C239.262 36.9773 238.446 37.272 237.449 37.272Z" fill="#43BFF4"/>
<path d="M121.304 61.188C121.901 61.188 122.433 61.314 122.9 61.566C123.367 61.8087 123.735 62.1773 124.006 62.672C124.277 63.1667 124.412 63.7687 124.412 64.478V69H123.152V64.66C123.152 63.8947 122.961 63.3113 122.578 62.91C122.205 62.4993 121.696 62.294 121.052 62.294C120.389 62.294 119.862 62.5087 119.47 62.938C119.078 63.358 118.882 63.9693 118.882 64.772V69H117.622V64.66C117.622 63.8947 117.431 63.3113 117.048 62.91C116.675 62.4993 116.166 62.294 115.522 62.294C114.859 62.294 114.332 62.5087 113.94 62.938C113.548 63.358 113.352 63.9693 113.352 64.772V69H112.078V61.328H113.352V62.434C113.604 62.0327 113.94 61.7247 114.36 61.51C114.789 61.2953 115.261 61.188 115.774 61.188C116.418 61.188 116.987 61.3327 117.482 61.622C117.977 61.9113 118.345 62.336 118.588 62.896C118.803 62.3547 119.157 61.9347 119.652 61.636C120.147 61.3373 120.697 61.188 121.304 61.188ZM126.026 65.136C126.026 64.352 126.184 63.666 126.502 63.078C126.819 62.4807 127.253 62.0187 127.804 61.692C128.364 61.3653 128.984 61.202 129.666 61.202C130.338 61.202 130.921 61.3467 131.416 61.636C131.91 61.9253 132.279 62.2893 132.522 62.728V61.328H133.81V69H132.522V67.572C132.27 68.02 131.892 68.3933 131.388 68.692C130.893 68.9813 130.314 69.126 129.652 69.126C128.97 69.126 128.354 68.958 127.804 68.622C127.253 68.286 126.819 67.8147 126.502 67.208C126.184 66.6013 126.026 65.9107 126.026 65.136ZM132.522 65.15C132.522 64.5713 132.405 64.0673 132.172 63.638C131.938 63.2087 131.621 62.882 131.22 62.658C130.828 62.4247 130.394 62.308 129.918 62.308C129.442 62.308 129.008 62.42 128.616 62.644C128.224 62.868 127.911 63.1947 127.678 63.624C127.444 64.0533 127.328 64.5573 127.328 65.136C127.328 65.724 127.444 66.2373 127.678 66.676C127.911 67.1053 128.224 67.4367 128.616 67.67C129.008 67.894 129.442 68.006 129.918 68.006C130.394 68.006 130.828 67.894 131.22 67.67C131.621 67.4367 131.938 67.1053 132.172 66.676C132.405 66.2373 132.522 65.7287 132.522 65.15ZM139.701 61.188C140.634 61.188 141.39 61.4727 141.969 62.042C142.547 62.602 142.837 63.414 142.837 64.478V69H141.577V64.66C141.577 63.8947 141.385 63.3113 141.003 62.91C140.62 62.4993 140.097 62.294 139.435 62.294C138.763 62.294 138.226 62.504 137.825 62.924C137.433 63.344 137.237 63.9553 137.237 64.758V69H135.963V61.328H137.237V62.42C137.489 62.028 137.829 61.7247 138.259 61.51C138.697 61.2953 139.178 61.188 139.701 61.188ZM144.442 65.136C144.442 64.352 144.601 63.666 144.918 63.078C145.235 62.4807 145.669 62.0187 146.22 61.692C146.78 61.3653 147.401 61.202 148.082 61.202C148.754 61.202 149.337 61.3467 149.832 61.636C150.327 61.9253 150.695 62.2893 150.938 62.728V61.328H152.226V69H150.938V67.572C150.686 68.02 150.308 68.3933 149.804 68.692C149.309 68.9813 148.731 69.126 148.068 69.126C147.387 69.126 146.771 68.958 146.22 68.622C145.669 68.286 145.235 67.8147 144.918 67.208C144.601 66.6013 144.442 65.9107 144.442 65.136ZM150.938 65.15C150.938 64.5713 150.821 64.0673 150.588 63.638C150.355 63.2087 150.037 62.882 149.636 62.658C149.244 62.4247 148.81 62.308 148.334 62.308C147.858 62.308 147.424 62.42 147.032 62.644C146.64 62.868 146.327 63.1947 146.094 63.624C145.861 64.0533 145.744 64.5573 145.744 65.136C145.744 65.724 145.861 66.2373 146.094 66.676C146.327 67.1053 146.64 67.4367 147.032 67.67C147.424 67.894 147.858 68.006 148.334 68.006C148.81 68.006 149.244 67.894 149.636 67.67C150.037 67.4367 150.355 67.1053 150.588 66.676C150.821 66.2373 150.938 65.7287 150.938 65.15ZM157.543 61.202C158.205 61.202 158.784 61.3467 159.279 61.636C159.783 61.9253 160.156 62.2893 160.399 62.728V61.328H161.687V69.168C161.687 69.868 161.537 70.4887 161.239 71.03C160.94 71.5807 160.511 72.01 159.951 72.318C159.4 72.626 158.756 72.78 158.019 72.78C157.011 72.78 156.171 72.542 155.499 72.066C154.827 71.59 154.43 70.9413 154.309 70.12H155.569C155.709 70.5867 155.998 70.96 156.437 71.24C156.875 71.5293 157.403 71.674 158.019 71.674C158.719 71.674 159.288 71.4547 159.727 71.016C160.175 70.5773 160.399 69.9613 160.399 69.168V67.558C160.147 68.006 159.773 68.3793 159.279 68.678C158.784 68.9767 158.205 69.126 157.543 69.126C156.861 69.126 156.241 68.958 155.681 68.622C155.13 68.286 154.696 67.8147 154.379 67.208C154.061 66.6013 153.903 65.9107 153.903 65.136C153.903 64.352 154.061 63.666 154.379 63.078C154.696 62.4807 155.13 62.0187 155.681 61.692C156.241 61.3653 156.861 61.202 157.543 61.202ZM160.399 65.15C160.399 64.5713 160.282 64.0673 160.049 63.638C159.815 63.2087 159.498 62.882 159.097 62.658C158.705 62.4247 158.271 62.308 157.795 62.308C157.319 62.308 156.885 62.42 156.493 62.644C156.101 62.868 155.788 63.1947 155.555 63.624C155.321 64.0533 155.205 64.5573 155.205 65.136C155.205 65.724 155.321 66.2373 155.555 66.676C155.788 67.1053 156.101 67.4367 156.493 67.67C156.885 67.894 157.319 68.006 157.795 68.006C158.271 68.006 158.705 67.894 159.097 67.67C159.498 67.4367 159.815 67.1053 160.049 66.676C160.282 66.2373 160.399 65.7287 160.399 65.15ZM170.84 64.87C170.84 65.1127 170.826 65.3693 170.798 65.64H164.666C164.712 66.396 164.969 66.9887 165.436 67.418C165.912 67.838 166.486 68.048 167.158 68.048C167.708 68.048 168.166 67.922 168.53 67.67C168.903 67.4087 169.164 67.0633 169.314 66.634H170.686C170.48 67.3713 170.07 67.9733 169.454 68.44C168.838 68.8973 168.072 69.126 167.158 69.126C166.43 69.126 165.776 68.9627 165.198 68.636C164.628 68.3093 164.18 67.8473 163.854 67.25C163.527 66.6433 163.364 65.9433 163.364 65.15C163.364 64.3567 163.522 63.6613 163.84 63.064C164.157 62.4667 164.6 62.0093 165.17 61.692C165.748 61.3653 166.411 61.202 167.158 61.202C167.886 61.202 168.53 61.3607 169.09 61.678C169.65 61.9953 170.079 62.434 170.378 62.994C170.686 63.5447 170.84 64.17 170.84 64.87ZM169.524 64.604C169.524 64.1187 169.416 63.7033 169.202 63.358C168.987 63.0033 168.693 62.7373 168.32 62.56C167.956 62.3733 167.55 62.28 167.102 62.28C166.458 62.28 165.907 62.4853 165.45 62.896C165.002 63.3067 164.745 63.876 164.68 64.604H169.524ZM182.862 61.328L178.242 72.612H176.926L178.438 68.916L175.344 61.328H176.758L179.166 67.544L181.546 61.328H182.862ZM187.488 69.126C186.77 69.126 186.116 68.9627 185.528 68.636C184.95 68.3093 184.492 67.8473 184.156 67.25C183.83 66.6433 183.666 65.9433 183.666 65.15C183.666 64.366 183.834 63.6753 184.17 63.078C184.516 62.4713 184.982 62.0093 185.57 61.692C186.158 61.3653 186.816 61.202 187.544 61.202C188.272 61.202 188.93 61.3653 189.518 61.692C190.106 62.0093 190.568 62.4667 190.904 63.064C191.25 63.6613 191.422 64.3567 191.422 65.15C191.422 65.9433 191.245 66.6433 190.89 67.25C190.545 67.8473 190.074 68.3093 189.476 68.636C188.879 68.9627 188.216 69.126 187.488 69.126ZM187.488 68.006C187.946 68.006 188.375 67.8987 188.776 67.684C189.178 67.4693 189.5 67.1473 189.742 66.718C189.994 66.2887 190.12 65.766 190.12 65.15C190.12 64.534 189.999 64.0113 189.756 63.582C189.514 63.1527 189.196 62.8353 188.804 62.63C188.412 62.4153 187.988 62.308 187.53 62.308C187.064 62.308 186.634 62.4153 186.242 62.63C185.86 62.8353 185.552 63.1527 185.318 63.582C185.085 64.0113 184.968 64.534 184.968 65.15C184.968 65.7753 185.08 66.3027 185.304 66.732C185.538 67.1613 185.846 67.4833 186.228 67.698C186.611 67.9033 187.031 68.006 187.488 68.006ZM199.902 61.328V69H198.628V67.866C198.385 68.258 198.044 68.566 197.606 68.79C197.176 69.0047 196.7 69.112 196.178 69.112C195.58 69.112 195.044 68.9907 194.568 68.748C194.092 68.496 193.714 68.1227 193.434 67.628C193.163 67.1333 193.028 66.5313 193.028 65.822V61.328H194.288V65.654C194.288 66.41 194.479 66.9933 194.862 67.404C195.244 67.8053 195.767 68.006 196.43 68.006C197.111 68.006 197.648 67.796 198.04 67.376C198.432 66.956 198.628 66.3447 198.628 65.542V61.328H199.902ZM203.327 62.574C203.551 62.1353 203.868 61.7947 204.279 61.552C204.699 61.3093 205.207 61.188 205.805 61.188V62.504H205.469C204.041 62.504 203.327 63.2787 203.327 64.828V69H202.053V61.328H203.327V62.574ZM212.562 62.378V66.9C212.562 67.2733 212.641 67.5393 212.8 67.698C212.958 67.8473 213.234 67.922 213.626 67.922H214.564V69H213.416C212.706 69 212.174 68.8367 211.82 68.51C211.465 68.1833 211.288 67.6467 211.288 66.9V62.378H210.294V61.328H211.288V59.396H212.562V61.328H214.564V62.378H212.562ZM216.765 60.082C216.523 60.082 216.317 59.998 216.149 59.83C215.981 59.662 215.897 59.4567 215.897 59.214C215.897 58.9713 215.981 58.766 216.149 58.598C216.317 58.43 216.523 58.346 216.765 58.346C216.999 58.346 217.195 58.43 217.353 58.598C217.521 58.766 217.605 58.9713 217.605 59.214C217.605 59.4567 217.521 59.662 217.353 59.83C217.195 59.998 216.999 60.082 216.765 60.082ZM217.381 61.328V69H216.107V61.328H217.381ZM228.779 61.188C229.376 61.188 229.908 61.314 230.375 61.566C230.841 61.8087 231.21 62.1773 231.481 62.672C231.751 63.1667 231.887 63.7687 231.887 64.478V69H230.627V64.66C230.627 63.8947 230.435 63.3113 230.053 62.91C229.679 62.4993 229.171 62.294 228.527 62.294C227.864 62.294 227.337 62.5087 226.945 62.938C226.553 63.358 226.357 63.9693 226.357 64.772V69H225.097V64.66C225.097 63.8947 224.905 63.3113 224.523 62.91C224.149 62.4993 223.641 62.294 222.997 62.294C222.334 62.294 221.807 62.5087 221.415 62.938C221.023 63.358 220.827 63.9693 220.827 64.772V69H219.553V61.328H220.827V62.434C221.079 62.0327 221.415 61.7247 221.835 61.51C222.264 61.2953 222.735 61.188 223.249 61.188C223.893 61.188 224.462 61.3327 224.957 61.622C225.451 61.9113 225.82 62.336 226.063 62.896C226.277 62.3547 226.632 61.9347 227.127 61.636C227.621 61.3373 228.172 61.188 228.779 61.188ZM240.976 64.87C240.976 65.1127 240.962 65.3693 240.934 65.64H234.802C234.849 66.396 235.106 66.9887 235.572 67.418C236.048 67.838 236.622 68.048 237.294 68.048C237.845 68.048 238.302 67.922 238.666 67.67C239.04 67.4087 239.301 67.0633 239.45 66.634H240.822C240.617 67.3713 240.206 67.9733 239.59 68.44C238.974 68.8973 238.209 69.126 237.294 69.126C236.566 69.126 235.913 68.9627 235.334 68.636C234.765 68.3093 234.317 67.8473 233.99 67.25C233.664 66.6433 233.5 65.9433 233.5 65.15C233.5 64.3567 233.659 63.6613 233.976 63.064C234.294 62.4667 234.737 62.0093 235.306 61.692C235.885 61.3653 236.548 61.202 237.294 61.202C238.022 61.202 238.666 61.3607 239.226 61.678C239.786 61.9953 240.216 62.434 240.514 62.994C240.822 63.5447 240.976 64.17 240.976 64.87ZM239.66 64.604C239.66 64.1187 239.553 63.7033 239.338 63.358C239.124 63.0033 238.83 62.7373 238.456 62.56C238.092 62.3733 237.686 62.28 237.238 62.28C236.594 62.28 236.044 62.4853 235.586 62.896C235.138 63.3067 234.882 63.876 234.816 64.604H239.66Z" fill="#E3F6F9"/>
</svg>
